G04 EAGLE Gerber X2 export*
%TF.Part,Single*%
%TF.FileFunction,Profile,NP*%
%TF.FilePolarity,Positive*%
%TF.GenerationSoftware,Autodesk,EAGLE,9.6.2*%
%TF.CreationDate,2020-08-09T06:15:17Z*%
G75*
%MOIN*%
%FSLAX36Y36*%
%LPD*%
%INBoard Outline*%
%AMOC8*
5,1,8,0,0,1.08239X$1,22.5*%
G01*
%ADD10C,0.000000*%
%ADD11C,0.010000*%


D10*
X0Y0D02*
X1771654Y0D01*
X1771654Y2362205D01*
X0Y2362205D01*
X0Y0D01*
X1553149Y511811D02*
X1553167Y513309D01*
X1553223Y514805D01*
X1553314Y516300D01*
X1553443Y517792D01*
X1553608Y519281D01*
X1553809Y520765D01*
X1554047Y522244D01*
X1554322Y523716D01*
X1554632Y525181D01*
X1554978Y526639D01*
X1555360Y528087D01*
X1555777Y529525D01*
X1556229Y530953D01*
X1556716Y532369D01*
X1557238Y533773D01*
X1557794Y535164D01*
X1558384Y536540D01*
X1559008Y537902D01*
X1559665Y539248D01*
X1560355Y540578D01*
X1561077Y541890D01*
X1561831Y543184D01*
X1562617Y544459D01*
X1563433Y545714D01*
X1564281Y546949D01*
X1565158Y548163D01*
X1566065Y549355D01*
X1567001Y550524D01*
X1567965Y551670D01*
X1568957Y552792D01*
X1569977Y553890D01*
X1571023Y554961D01*
X1572094Y556007D01*
X1573192Y557027D01*
X1574314Y558019D01*
X1575460Y558983D01*
X1576629Y559919D01*
X1577821Y560826D01*
X1579035Y561703D01*
X1580270Y562551D01*
X1581525Y563367D01*
X1582800Y564153D01*
X1584094Y564907D01*
X1585406Y565629D01*
X1586736Y566319D01*
X1588082Y566976D01*
X1589444Y567600D01*
X1590820Y568190D01*
X1592211Y568746D01*
X1593615Y569268D01*
X1595031Y569755D01*
X1596459Y570207D01*
X1597897Y570624D01*
X1599345Y571006D01*
X1600803Y571352D01*
X1602268Y571662D01*
X1603740Y571937D01*
X1605219Y572175D01*
X1606703Y572376D01*
X1608192Y572541D01*
X1609684Y572670D01*
X1611179Y572761D01*
X1612675Y572817D01*
X1614173Y572835D01*
X1615671Y572817D01*
X1617167Y572761D01*
X1618662Y572670D01*
X1620154Y572541D01*
X1621643Y572376D01*
X1623127Y572175D01*
X1624606Y571937D01*
X1626078Y571662D01*
X1627543Y571352D01*
X1629001Y571006D01*
X1630449Y570624D01*
X1631887Y570207D01*
X1633315Y569755D01*
X1634731Y569268D01*
X1636135Y568746D01*
X1637526Y568190D01*
X1638902Y567600D01*
X1640264Y566976D01*
X1641610Y566319D01*
X1642940Y565629D01*
X1644252Y564907D01*
X1645546Y564153D01*
X1646821Y563367D01*
X1648076Y562551D01*
X1649311Y561703D01*
X1650525Y560826D01*
X1651717Y559919D01*
X1652886Y558983D01*
X1654032Y558019D01*
X1655154Y557027D01*
X1656252Y556007D01*
X1657323Y554961D01*
X1658369Y553890D01*
X1659389Y552792D01*
X1660381Y551670D01*
X1661345Y550524D01*
X1662281Y549355D01*
X1663188Y548163D01*
X1664065Y546949D01*
X1664913Y545714D01*
X1665729Y544459D01*
X1666515Y543184D01*
X1667269Y541890D01*
X1667991Y540578D01*
X1668681Y539248D01*
X1669338Y537902D01*
X1669962Y536540D01*
X1670552Y535164D01*
X1671108Y533773D01*
X1671630Y532369D01*
X1672117Y530953D01*
X1672569Y529525D01*
X1672986Y528087D01*
X1673368Y526639D01*
X1673714Y525181D01*
X1674024Y523716D01*
X1674299Y522244D01*
X1674537Y520765D01*
X1674738Y519281D01*
X1674903Y517792D01*
X1675032Y516300D01*
X1675123Y514805D01*
X1675179Y513309D01*
X1675197Y511811D01*
X1675179Y510313D01*
X1675123Y508817D01*
X1675032Y507322D01*
X1674903Y505830D01*
X1674738Y504341D01*
X1674537Y502857D01*
X1674299Y501378D01*
X1674024Y499906D01*
X1673714Y498441D01*
X1673368Y496983D01*
X1672986Y495535D01*
X1672569Y494097D01*
X1672117Y492669D01*
X1671630Y491253D01*
X1671108Y489849D01*
X1670552Y488458D01*
X1669962Y487082D01*
X1669338Y485720D01*
X1668681Y484374D01*
X1667991Y483044D01*
X1667269Y481732D01*
X1666515Y480438D01*
X1665729Y479163D01*
X1664913Y477908D01*
X1664065Y476673D01*
X1663188Y475459D01*
X1662281Y474267D01*
X1661345Y473098D01*
X1660381Y471952D01*
X1659389Y470830D01*
X1658369Y469732D01*
X1657323Y468661D01*
X1656252Y467615D01*
X1655154Y466595D01*
X1654032Y465603D01*
X1652886Y464639D01*
X1651717Y463703D01*
X1650525Y462796D01*
X1649311Y461919D01*
X1648076Y461071D01*
X1646821Y460255D01*
X1645546Y459469D01*
X1644252Y458715D01*
X1642940Y457993D01*
X1641610Y457303D01*
X1640264Y456646D01*
X1638902Y456022D01*
X1637526Y455432D01*
X1636135Y454876D01*
X1634731Y454354D01*
X1633315Y453867D01*
X1631887Y453415D01*
X1630449Y452998D01*
X1629001Y452616D01*
X1627543Y452270D01*
X1626078Y451960D01*
X1624606Y451685D01*
X1623127Y451447D01*
X1621643Y451246D01*
X1620154Y451081D01*
X1618662Y450952D01*
X1617167Y450861D01*
X1615671Y450805D01*
X1614173Y450787D01*
X1612675Y450805D01*
X1611179Y450861D01*
X1609684Y450952D01*
X1608192Y451081D01*
X1606703Y451246D01*
X1605219Y451447D01*
X1603740Y451685D01*
X1602268Y451960D01*
X1600803Y452270D01*
X1599345Y452616D01*
X1597897Y452998D01*
X1596459Y453415D01*
X1595031Y453867D01*
X1593615Y454354D01*
X1592211Y454876D01*
X1590820Y455432D01*
X1589444Y456022D01*
X1588082Y456646D01*
X1586736Y457303D01*
X1585406Y457993D01*
X1584094Y458715D01*
X1582800Y459469D01*
X1581525Y460255D01*
X1580270Y461071D01*
X1579035Y461919D01*
X1577821Y462796D01*
X1576629Y463703D01*
X1575460Y464639D01*
X1574314Y465603D01*
X1573192Y466595D01*
X1572094Y467615D01*
X1571023Y468661D01*
X1569977Y469732D01*
X1568957Y470830D01*
X1567965Y471952D01*
X1567001Y473098D01*
X1566065Y474267D01*
X1565158Y475459D01*
X1564281Y476673D01*
X1563433Y477908D01*
X1562617Y479163D01*
X1561831Y480438D01*
X1561077Y481732D01*
X1560355Y483044D01*
X1559665Y484374D01*
X1559008Y485720D01*
X1558384Y487082D01*
X1557794Y488458D01*
X1557238Y489849D01*
X1556716Y491253D01*
X1556229Y492669D01*
X1555777Y494097D01*
X1555360Y495535D01*
X1554978Y496983D01*
X1554632Y498441D01*
X1554322Y499906D01*
X1554047Y501378D01*
X1553809Y502857D01*
X1553608Y504341D01*
X1553443Y505830D01*
X1553314Y507322D01*
X1553223Y508817D01*
X1553167Y510313D01*
X1553149Y511811D01*
X1553149Y1732283D02*
X1553167Y1733781D01*
X1553223Y1735277D01*
X1553314Y1736772D01*
X1553443Y1738264D01*
X1553608Y1739753D01*
X1553809Y1741237D01*
X1554047Y1742716D01*
X1554322Y1744188D01*
X1554632Y1745653D01*
X1554978Y1747111D01*
X1555360Y1748559D01*
X1555777Y1749997D01*
X1556229Y1751425D01*
X1556716Y1752841D01*
X1557238Y1754245D01*
X1557794Y1755636D01*
X1558384Y1757012D01*
X1559008Y1758374D01*
X1559665Y1759720D01*
X1560355Y1761050D01*
X1561077Y1762362D01*
X1561831Y1763656D01*
X1562617Y1764931D01*
X1563433Y1766186D01*
X1564281Y1767421D01*
X1565158Y1768635D01*
X1566065Y1769827D01*
X1567001Y1770996D01*
X1567965Y1772142D01*
X1568957Y1773264D01*
X1569977Y1774362D01*
X1571023Y1775433D01*
X1572094Y1776479D01*
X1573192Y1777499D01*
X1574314Y1778491D01*
X1575460Y1779455D01*
X1576629Y1780391D01*
X1577821Y1781298D01*
X1579035Y1782175D01*
X1580270Y1783023D01*
X1581525Y1783839D01*
X1582800Y1784625D01*
X1584094Y1785379D01*
X1585406Y1786101D01*
X1586736Y1786791D01*
X1588082Y1787448D01*
X1589444Y1788072D01*
X1590820Y1788662D01*
X1592211Y1789218D01*
X1593615Y1789740D01*
X1595031Y1790227D01*
X1596459Y1790679D01*
X1597897Y1791096D01*
X1599345Y1791478D01*
X1600803Y1791824D01*
X1602268Y1792134D01*
X1603740Y1792409D01*
X1605219Y1792647D01*
X1606703Y1792848D01*
X1608192Y1793013D01*
X1609684Y1793142D01*
X1611179Y1793233D01*
X1612675Y1793289D01*
X1614173Y1793307D01*
X1615671Y1793289D01*
X1617167Y1793233D01*
X1618662Y1793142D01*
X1620154Y1793013D01*
X1621643Y1792848D01*
X1623127Y1792647D01*
X1624606Y1792409D01*
X1626078Y1792134D01*
X1627543Y1791824D01*
X1629001Y1791478D01*
X1630449Y1791096D01*
X1631887Y1790679D01*
X1633315Y1790227D01*
X1634731Y1789740D01*
X1636135Y1789218D01*
X1637526Y1788662D01*
X1638902Y1788072D01*
X1640264Y1787448D01*
X1641610Y1786791D01*
X1642940Y1786101D01*
X1644252Y1785379D01*
X1645546Y1784625D01*
X1646821Y1783839D01*
X1648076Y1783023D01*
X1649311Y1782175D01*
X1650525Y1781298D01*
X1651717Y1780391D01*
X1652886Y1779455D01*
X1654032Y1778491D01*
X1655154Y1777499D01*
X1656252Y1776479D01*
X1657323Y1775433D01*
X1658369Y1774362D01*
X1659389Y1773264D01*
X1660381Y1772142D01*
X1661345Y1770996D01*
X1662281Y1769827D01*
X1663188Y1768635D01*
X1664065Y1767421D01*
X1664913Y1766186D01*
X1665729Y1764931D01*
X1666515Y1763656D01*
X1667269Y1762362D01*
X1667991Y1761050D01*
X1668681Y1759720D01*
X1669338Y1758374D01*
X1669962Y1757012D01*
X1670552Y1755636D01*
X1671108Y1754245D01*
X1671630Y1752841D01*
X1672117Y1751425D01*
X1672569Y1749997D01*
X1672986Y1748559D01*
X1673368Y1747111D01*
X1673714Y1745653D01*
X1674024Y1744188D01*
X1674299Y1742716D01*
X1674537Y1741237D01*
X1674738Y1739753D01*
X1674903Y1738264D01*
X1675032Y1736772D01*
X1675123Y1735277D01*
X1675179Y1733781D01*
X1675197Y1732283D01*
X1675179Y1730785D01*
X1675123Y1729289D01*
X1675032Y1727794D01*
X1674903Y1726302D01*
X1674738Y1724813D01*
X1674537Y1723329D01*
X1674299Y1721850D01*
X1674024Y1720378D01*
X1673714Y1718913D01*
X1673368Y1717455D01*
X1672986Y1716007D01*
X1672569Y1714569D01*
X1672117Y1713141D01*
X1671630Y1711725D01*
X1671108Y1710321D01*
X1670552Y1708930D01*
X1669962Y1707554D01*
X1669338Y1706192D01*
X1668681Y1704846D01*
X1667991Y1703516D01*
X1667269Y1702204D01*
X1666515Y1700910D01*
X1665729Y1699635D01*
X1664913Y1698380D01*
X1664065Y1697145D01*
X1663188Y1695931D01*
X1662281Y1694739D01*
X1661345Y1693570D01*
X1660381Y1692424D01*
X1659389Y1691302D01*
X1658369Y1690204D01*
X1657323Y1689133D01*
X1656252Y1688087D01*
X1655154Y1687067D01*
X1654032Y1686075D01*
X1652886Y1685111D01*
X1651717Y1684175D01*
X1650525Y1683268D01*
X1649311Y1682391D01*
X1648076Y1681543D01*
X1646821Y1680727D01*
X1645546Y1679941D01*
X1644252Y1679187D01*
X1642940Y1678465D01*
X1641610Y1677775D01*
X1640264Y1677118D01*
X1638902Y1676494D01*
X1637526Y1675904D01*
X1636135Y1675348D01*
X1634731Y1674826D01*
X1633315Y1674339D01*
X1631887Y1673887D01*
X1630449Y1673470D01*
X1629001Y1673088D01*
X1627543Y1672742D01*
X1626078Y1672432D01*
X1624606Y1672157D01*
X1623127Y1671919D01*
X1621643Y1671718D01*
X1620154Y1671553D01*
X1618662Y1671424D01*
X1617167Y1671333D01*
X1615671Y1671277D01*
X1614173Y1671259D01*
X1612675Y1671277D01*
X1611179Y1671333D01*
X1609684Y1671424D01*
X1608192Y1671553D01*
X1606703Y1671718D01*
X1605219Y1671919D01*
X1603740Y1672157D01*
X1602268Y1672432D01*
X1600803Y1672742D01*
X1599345Y1673088D01*
X1597897Y1673470D01*
X1596459Y1673887D01*
X1595031Y1674339D01*
X1593615Y1674826D01*
X1592211Y1675348D01*
X1590820Y1675904D01*
X1589444Y1676494D01*
X1588082Y1677118D01*
X1586736Y1677775D01*
X1585406Y1678465D01*
X1584094Y1679187D01*
X1582800Y1679941D01*
X1581525Y1680727D01*
X1580270Y1681543D01*
X1579035Y1682391D01*
X1577821Y1683268D01*
X1576629Y1684175D01*
X1575460Y1685111D01*
X1574314Y1686075D01*
X1573192Y1687067D01*
X1572094Y1688087D01*
X1571023Y1689133D01*
X1569977Y1690204D01*
X1568957Y1691302D01*
X1567965Y1692424D01*
X1567001Y1693570D01*
X1566065Y1694739D01*
X1565158Y1695931D01*
X1564281Y1697145D01*
X1563433Y1698380D01*
X1562617Y1699635D01*
X1561831Y1700910D01*
X1561077Y1702204D01*
X1560355Y1703516D01*
X1559665Y1704846D01*
X1559008Y1706192D01*
X1558384Y1707554D01*
X1557794Y1708930D01*
X1557238Y1710321D01*
X1556716Y1711725D01*
X1556229Y1713141D01*
X1555777Y1714569D01*
X1555360Y1716007D01*
X1554978Y1717455D01*
X1554632Y1718913D01*
X1554322Y1720378D01*
X1554047Y1721850D01*
X1553809Y1723329D01*
X1553608Y1724813D01*
X1553443Y1726302D01*
X1553314Y1727794D01*
X1553223Y1729289D01*
X1553167Y1730785D01*
X1553149Y1732283D01*
X96456Y669291D02*
X96474Y670789D01*
X96530Y672285D01*
X96621Y673780D01*
X96750Y675272D01*
X96915Y676761D01*
X97116Y678245D01*
X97354Y679724D01*
X97629Y681196D01*
X97939Y682661D01*
X98285Y684119D01*
X98667Y685567D01*
X99084Y687005D01*
X99536Y688433D01*
X100023Y689849D01*
X100545Y691253D01*
X101101Y692644D01*
X101691Y694020D01*
X102315Y695382D01*
X102972Y696728D01*
X103662Y698058D01*
X104384Y699370D01*
X105138Y700664D01*
X105924Y701939D01*
X106740Y703194D01*
X107588Y704429D01*
X108465Y705643D01*
X109372Y706835D01*
X110308Y708004D01*
X111272Y709150D01*
X112264Y710272D01*
X113284Y711370D01*
X114330Y712441D01*
X115401Y713487D01*
X116499Y714507D01*
X117621Y715499D01*
X118767Y716463D01*
X119936Y717399D01*
X121128Y718306D01*
X122342Y719183D01*
X123577Y720031D01*
X124832Y720847D01*
X126107Y721633D01*
X127401Y722387D01*
X128713Y723109D01*
X130043Y723799D01*
X131389Y724456D01*
X132751Y725080D01*
X134127Y725670D01*
X135518Y726226D01*
X136922Y726748D01*
X138338Y727235D01*
X139766Y727687D01*
X141204Y728104D01*
X142652Y728486D01*
X144110Y728832D01*
X145575Y729142D01*
X147047Y729417D01*
X148526Y729655D01*
X150010Y729856D01*
X151499Y730021D01*
X152991Y730150D01*
X154486Y730241D01*
X155982Y730297D01*
X157480Y730315D01*
X158978Y730297D01*
X160474Y730241D01*
X161969Y730150D01*
X163461Y730021D01*
X164950Y729856D01*
X166434Y729655D01*
X167913Y729417D01*
X169385Y729142D01*
X170850Y728832D01*
X172308Y728486D01*
X173756Y728104D01*
X175194Y727687D01*
X176622Y727235D01*
X178038Y726748D01*
X179442Y726226D01*
X180833Y725670D01*
X182209Y725080D01*
X183571Y724456D01*
X184917Y723799D01*
X186247Y723109D01*
X187559Y722387D01*
X188853Y721633D01*
X190128Y720847D01*
X191383Y720031D01*
X192618Y719183D01*
X193832Y718306D01*
X195024Y717399D01*
X196193Y716463D01*
X197339Y715499D01*
X198461Y714507D01*
X199559Y713487D01*
X200630Y712441D01*
X201676Y711370D01*
X202696Y710272D01*
X203688Y709150D01*
X204652Y708004D01*
X205588Y706835D01*
X206495Y705643D01*
X207372Y704429D01*
X208220Y703194D01*
X209036Y701939D01*
X209822Y700664D01*
X210576Y699370D01*
X211298Y698058D01*
X211988Y696728D01*
X212645Y695382D01*
X213269Y694020D01*
X213859Y692644D01*
X214415Y691253D01*
X214937Y689849D01*
X215424Y688433D01*
X215876Y687005D01*
X216293Y685567D01*
X216675Y684119D01*
X217021Y682661D01*
X217331Y681196D01*
X217606Y679724D01*
X217844Y678245D01*
X218045Y676761D01*
X218210Y675272D01*
X218339Y673780D01*
X218430Y672285D01*
X218486Y670789D01*
X218504Y669291D01*
X218486Y667793D01*
X218430Y666297D01*
X218339Y664802D01*
X218210Y663310D01*
X218045Y661821D01*
X217844Y660337D01*
X217606Y658858D01*
X217331Y657386D01*
X217021Y655921D01*
X216675Y654463D01*
X216293Y653015D01*
X215876Y651577D01*
X215424Y650149D01*
X214937Y648733D01*
X214415Y647329D01*
X213859Y645938D01*
X213269Y644562D01*
X212645Y643200D01*
X211988Y641854D01*
X211298Y640524D01*
X210576Y639212D01*
X209822Y637918D01*
X209036Y636643D01*
X208220Y635388D01*
X207372Y634153D01*
X206495Y632939D01*
X205588Y631747D01*
X204652Y630578D01*
X203688Y629432D01*
X202696Y628310D01*
X201676Y627212D01*
X200630Y626141D01*
X199559Y625095D01*
X198461Y624075D01*
X197339Y623083D01*
X196193Y622119D01*
X195024Y621183D01*
X193832Y620276D01*
X192618Y619399D01*
X191383Y618551D01*
X190128Y617735D01*
X188853Y616949D01*
X187559Y616195D01*
X186247Y615473D01*
X184917Y614783D01*
X183571Y614126D01*
X182209Y613502D01*
X180833Y612912D01*
X179442Y612356D01*
X178038Y611834D01*
X176622Y611347D01*
X175194Y610895D01*
X173756Y610478D01*
X172308Y610096D01*
X170850Y609750D01*
X169385Y609440D01*
X167913Y609165D01*
X166434Y608927D01*
X164950Y608726D01*
X163461Y608561D01*
X161969Y608432D01*
X160474Y608341D01*
X158978Y608285D01*
X157480Y608267D01*
X155982Y608285D01*
X154486Y608341D01*
X152991Y608432D01*
X151499Y608561D01*
X150010Y608726D01*
X148526Y608927D01*
X147047Y609165D01*
X145575Y609440D01*
X144110Y609750D01*
X142652Y610096D01*
X141204Y610478D01*
X139766Y610895D01*
X138338Y611347D01*
X136922Y611834D01*
X135518Y612356D01*
X134127Y612912D01*
X132751Y613502D01*
X131389Y614126D01*
X130043Y614783D01*
X128713Y615473D01*
X127401Y616195D01*
X126107Y616949D01*
X124832Y617735D01*
X123577Y618551D01*
X122342Y619399D01*
X121128Y620276D01*
X119936Y621183D01*
X118767Y622119D01*
X117621Y623083D01*
X116499Y624075D01*
X115401Y625095D01*
X114330Y626141D01*
X113284Y627212D01*
X112264Y628310D01*
X111272Y629432D01*
X110308Y630578D01*
X109372Y631747D01*
X108465Y632939D01*
X107588Y634153D01*
X106740Y635388D01*
X105924Y636643D01*
X105138Y637918D01*
X104384Y639212D01*
X103662Y640524D01*
X102972Y641854D01*
X102315Y643200D01*
X101691Y644562D01*
X101101Y645938D01*
X100545Y647329D01*
X100023Y648733D01*
X99536Y650149D01*
X99084Y651577D01*
X98667Y653015D01*
X98285Y654463D01*
X97939Y655921D01*
X97629Y657386D01*
X97354Y658858D01*
X97116Y660337D01*
X96915Y661821D01*
X96750Y663310D01*
X96621Y664802D01*
X96530Y666297D01*
X96474Y667793D01*
X96456Y669291D01*
X96456Y1574803D02*
X96474Y1576301D01*
X96530Y1577797D01*
X96621Y1579292D01*
X96750Y1580784D01*
X96915Y1582273D01*
X97116Y1583757D01*
X97354Y1585236D01*
X97629Y1586708D01*
X97939Y1588173D01*
X98285Y1589631D01*
X98667Y1591079D01*
X99084Y1592517D01*
X99536Y1593945D01*
X100023Y1595361D01*
X100545Y1596765D01*
X101101Y1598156D01*
X101691Y1599532D01*
X102315Y1600894D01*
X102972Y1602240D01*
X103662Y1603570D01*
X104384Y1604882D01*
X105138Y1606176D01*
X105924Y1607451D01*
X106740Y1608706D01*
X107588Y1609941D01*
X108465Y1611155D01*
X109372Y1612347D01*
X110308Y1613516D01*
X111272Y1614662D01*
X112264Y1615784D01*
X113284Y1616882D01*
X114330Y1617953D01*
X115401Y1618999D01*
X116499Y1620019D01*
X117621Y1621011D01*
X118767Y1621975D01*
X119936Y1622911D01*
X121128Y1623818D01*
X122342Y1624695D01*
X123577Y1625543D01*
X124832Y1626359D01*
X126107Y1627145D01*
X127401Y1627899D01*
X128713Y1628621D01*
X130043Y1629311D01*
X131389Y1629968D01*
X132751Y1630592D01*
X134127Y1631182D01*
X135518Y1631738D01*
X136922Y1632260D01*
X138338Y1632747D01*
X139766Y1633199D01*
X141204Y1633616D01*
X142652Y1633998D01*
X144110Y1634344D01*
X145575Y1634654D01*
X147047Y1634929D01*
X148526Y1635167D01*
X150010Y1635368D01*
X151499Y1635533D01*
X152991Y1635662D01*
X154486Y1635753D01*
X155982Y1635809D01*
X157480Y1635827D01*
X158978Y1635809D01*
X160474Y1635753D01*
X161969Y1635662D01*
X163461Y1635533D01*
X164950Y1635368D01*
X166434Y1635167D01*
X167913Y1634929D01*
X169385Y1634654D01*
X170850Y1634344D01*
X172308Y1633998D01*
X173756Y1633616D01*
X175194Y1633199D01*
X176622Y1632747D01*
X178038Y1632260D01*
X179442Y1631738D01*
X180833Y1631182D01*
X182209Y1630592D01*
X183571Y1629968D01*
X184917Y1629311D01*
X186247Y1628621D01*
X187559Y1627899D01*
X188853Y1627145D01*
X190128Y1626359D01*
X191383Y1625543D01*
X192618Y1624695D01*
X193832Y1623818D01*
X195024Y1622911D01*
X196193Y1621975D01*
X197339Y1621011D01*
X198461Y1620019D01*
X199559Y1618999D01*
X200630Y1617953D01*
X201676Y1616882D01*
X202696Y1615784D01*
X203688Y1614662D01*
X204652Y1613516D01*
X205588Y1612347D01*
X206495Y1611155D01*
X207372Y1609941D01*
X208220Y1608706D01*
X209036Y1607451D01*
X209822Y1606176D01*
X210576Y1604882D01*
X211298Y1603570D01*
X211988Y1602240D01*
X212645Y1600894D01*
X213269Y1599532D01*
X213859Y1598156D01*
X214415Y1596765D01*
X214937Y1595361D01*
X215424Y1593945D01*
X215876Y1592517D01*
X216293Y1591079D01*
X216675Y1589631D01*
X217021Y1588173D01*
X217331Y1586708D01*
X217606Y1585236D01*
X217844Y1583757D01*
X218045Y1582273D01*
X218210Y1580784D01*
X218339Y1579292D01*
X218430Y1577797D01*
X218486Y1576301D01*
X218504Y1574803D01*
X218486Y1573305D01*
X218430Y1571809D01*
X218339Y1570314D01*
X218210Y1568822D01*
X218045Y1567333D01*
X217844Y1565849D01*
X217606Y1564370D01*
X217331Y1562898D01*
X217021Y1561433D01*
X216675Y1559975D01*
X216293Y1558527D01*
X215876Y1557089D01*
X215424Y1555661D01*
X214937Y1554245D01*
X214415Y1552841D01*
X213859Y1551450D01*
X213269Y1550074D01*
X212645Y1548712D01*
X211988Y1547366D01*
X211298Y1546036D01*
X210576Y1544724D01*
X209822Y1543430D01*
X209036Y1542155D01*
X208220Y1540900D01*
X207372Y1539665D01*
X206495Y1538451D01*
X205588Y1537259D01*
X204652Y1536090D01*
X203688Y1534944D01*
X202696Y1533822D01*
X201676Y1532724D01*
X200630Y1531653D01*
X199559Y1530607D01*
X198461Y1529587D01*
X197339Y1528595D01*
X196193Y1527631D01*
X195024Y1526695D01*
X193832Y1525788D01*
X192618Y1524911D01*
X191383Y1524063D01*
X190128Y1523247D01*
X188853Y1522461D01*
X187559Y1521707D01*
X186247Y1520985D01*
X184917Y1520295D01*
X183571Y1519638D01*
X182209Y1519014D01*
X180833Y1518424D01*
X179442Y1517868D01*
X178038Y1517346D01*
X176622Y1516859D01*
X175194Y1516407D01*
X173756Y1515990D01*
X172308Y1515608D01*
X170850Y1515262D01*
X169385Y1514952D01*
X167913Y1514677D01*
X166434Y1514439D01*
X164950Y1514238D01*
X163461Y1514073D01*
X161969Y1513944D01*
X160474Y1513853D01*
X158978Y1513797D01*
X157480Y1513779D01*
X155982Y1513797D01*
X154486Y1513853D01*
X152991Y1513944D01*
X151499Y1514073D01*
X150010Y1514238D01*
X148526Y1514439D01*
X147047Y1514677D01*
X145575Y1514952D01*
X144110Y1515262D01*
X142652Y1515608D01*
X141204Y1515990D01*
X139766Y1516407D01*
X138338Y1516859D01*
X136922Y1517346D01*
X135518Y1517868D01*
X134127Y1518424D01*
X132751Y1519014D01*
X131389Y1519638D01*
X130043Y1520295D01*
X128713Y1520985D01*
X127401Y1521707D01*
X126107Y1522461D01*
X124832Y1523247D01*
X123577Y1524063D01*
X122342Y1524911D01*
X121128Y1525788D01*
X119936Y1526695D01*
X118767Y1527631D01*
X117621Y1528595D01*
X116499Y1529587D01*
X115401Y1530607D01*
X114330Y1531653D01*
X113284Y1532724D01*
X112264Y1533822D01*
X111272Y1534944D01*
X110308Y1536090D01*
X109372Y1537259D01*
X108465Y1538451D01*
X107588Y1539665D01*
X106740Y1540900D01*
X105924Y1542155D01*
X105138Y1543430D01*
X104384Y1544724D01*
X103662Y1546036D01*
X102972Y1547366D01*
X102315Y1548712D01*
X101691Y1550074D01*
X101101Y1551450D01*
X100545Y1552841D01*
X100023Y1554245D01*
X99536Y1555661D01*
X99084Y1557089D01*
X98667Y1558527D01*
X98285Y1559975D01*
X97939Y1561433D01*
X97629Y1562898D01*
X97354Y1564370D01*
X97116Y1565849D01*
X96915Y1567333D01*
X96750Y1568822D01*
X96621Y1570314D01*
X96530Y1571809D01*
X96474Y1573305D01*
X96456Y1574803D01*
D11*
X0Y0D02*
X1771654Y0D01*
X1771654Y2362205D01*
X0Y2362205D01*
X0Y0D01*
X1675197Y509632D02*
X1674886Y505284D01*
X1674266Y500969D01*
X1673339Y496710D01*
X1672111Y492528D01*
X1670588Y488443D01*
X1668777Y484478D01*
X1666688Y480653D01*
X1664331Y476986D01*
X1661719Y473496D01*
X1658865Y470202D01*
X1655782Y467120D01*
X1652488Y464265D01*
X1648999Y461653D01*
X1645332Y459296D01*
X1641506Y457207D01*
X1637541Y455397D01*
X1633457Y453873D01*
X1629274Y452645D01*
X1625015Y451719D01*
X1620701Y451098D01*
X1616353Y450787D01*
X1611994Y450787D01*
X1607646Y451098D01*
X1603331Y451719D01*
X1599072Y452645D01*
X1594890Y453873D01*
X1590806Y455397D01*
X1586841Y457207D01*
X1583015Y459296D01*
X1579348Y461653D01*
X1575858Y464265D01*
X1572564Y467120D01*
X1569482Y470202D01*
X1566627Y473496D01*
X1564015Y476986D01*
X1561659Y480653D01*
X1559570Y484478D01*
X1557759Y488443D01*
X1556235Y492528D01*
X1555008Y496710D01*
X1554081Y500969D01*
X1553461Y505284D01*
X1553150Y509632D01*
X1553150Y513991D01*
X1553461Y518338D01*
X1554081Y522653D01*
X1555008Y526912D01*
X1556235Y531094D01*
X1557759Y535179D01*
X1559570Y539144D01*
X1561659Y542969D01*
X1564015Y546636D01*
X1566627Y550126D01*
X1569482Y553420D01*
X1572564Y556502D01*
X1575858Y559357D01*
X1579348Y561969D01*
X1583015Y564326D01*
X1586841Y566415D01*
X1590806Y568225D01*
X1594890Y569749D01*
X1599072Y570977D01*
X1603331Y571903D01*
X1607646Y572524D01*
X1611994Y572835D01*
X1616353Y572835D01*
X1620701Y572524D01*
X1625015Y571903D01*
X1629274Y570977D01*
X1633457Y569749D01*
X1637541Y568225D01*
X1641506Y566415D01*
X1645332Y564326D01*
X1648999Y561969D01*
X1652488Y559357D01*
X1655782Y556502D01*
X1658865Y553420D01*
X1661719Y550126D01*
X1664331Y546636D01*
X1666688Y542969D01*
X1668777Y539144D01*
X1670588Y535179D01*
X1672111Y531094D01*
X1673339Y526912D01*
X1674266Y522653D01*
X1674886Y518338D01*
X1675197Y513991D01*
X1675197Y509632D01*
X1675197Y1730104D02*
X1674886Y1725756D01*
X1674266Y1721442D01*
X1673339Y1717182D01*
X1672111Y1713000D01*
X1670588Y1708916D01*
X1668777Y1704951D01*
X1666688Y1701125D01*
X1664331Y1697458D01*
X1661719Y1693969D01*
X1658865Y1690674D01*
X1655782Y1687592D01*
X1652488Y1684738D01*
X1648999Y1682125D01*
X1645332Y1679769D01*
X1641506Y1677680D01*
X1637541Y1675869D01*
X1633457Y1674346D01*
X1629274Y1673118D01*
X1625015Y1672191D01*
X1620701Y1671571D01*
X1616353Y1671260D01*
X1611994Y1671260D01*
X1607646Y1671571D01*
X1603331Y1672191D01*
X1599072Y1673118D01*
X1594890Y1674346D01*
X1590806Y1675869D01*
X1586841Y1677680D01*
X1583015Y1679769D01*
X1579348Y1682125D01*
X1575858Y1684738D01*
X1572564Y1687592D01*
X1569482Y1690674D01*
X1566627Y1693969D01*
X1564015Y1697458D01*
X1561659Y1701125D01*
X1559570Y1704951D01*
X1557759Y1708916D01*
X1556235Y1713000D01*
X1555008Y1717182D01*
X1554081Y1721442D01*
X1553461Y1725756D01*
X1553150Y1730104D01*
X1553150Y1734463D01*
X1553461Y1738811D01*
X1554081Y1743125D01*
X1555008Y1747385D01*
X1556235Y1751567D01*
X1557759Y1755651D01*
X1559570Y1759616D01*
X1561659Y1763442D01*
X1564015Y1767109D01*
X1566627Y1770598D01*
X1569482Y1773893D01*
X1572564Y1776975D01*
X1575858Y1779829D01*
X1579348Y1782441D01*
X1583015Y1784798D01*
X1586841Y1786887D01*
X1590806Y1788698D01*
X1594890Y1790221D01*
X1599072Y1791449D01*
X1603331Y1792376D01*
X1607646Y1792996D01*
X1611994Y1793307D01*
X1616353Y1793307D01*
X1620701Y1792996D01*
X1625015Y1792376D01*
X1629274Y1791449D01*
X1633457Y1790221D01*
X1637541Y1788698D01*
X1641506Y1786887D01*
X1645332Y1784798D01*
X1648999Y1782441D01*
X1652488Y1779829D01*
X1655782Y1776975D01*
X1658865Y1773893D01*
X1661719Y1770598D01*
X1664331Y1767109D01*
X1666688Y1763442D01*
X1668777Y1759616D01*
X1670588Y1755651D01*
X1672111Y1751567D01*
X1673339Y1747385D01*
X1674266Y1743125D01*
X1674886Y1738811D01*
X1675197Y1734463D01*
X1675197Y1730104D01*
X218504Y667112D02*
X218193Y662764D01*
X217573Y658449D01*
X216646Y654190D01*
X215418Y650008D01*
X213895Y645924D01*
X212084Y641959D01*
X209995Y638133D01*
X207638Y634466D01*
X205026Y630977D01*
X202172Y627682D01*
X199089Y624600D01*
X195795Y621746D01*
X192306Y619133D01*
X188639Y616777D01*
X184813Y614688D01*
X180848Y612877D01*
X176764Y611354D01*
X172581Y610126D01*
X168322Y609199D01*
X164008Y608579D01*
X159660Y608268D01*
X155301Y608268D01*
X150953Y608579D01*
X146638Y609199D01*
X142379Y610126D01*
X138197Y611354D01*
X134113Y612877D01*
X130148Y614688D01*
X126322Y616777D01*
X122655Y619133D01*
X119165Y621746D01*
X115871Y624600D01*
X112789Y627682D01*
X109935Y630977D01*
X107322Y634466D01*
X104966Y638133D01*
X102877Y641959D01*
X101066Y645924D01*
X99543Y650008D01*
X98315Y654190D01*
X97388Y658449D01*
X96768Y662764D01*
X96457Y667112D01*
X96457Y671471D01*
X96768Y675819D01*
X97388Y680133D01*
X98315Y684392D01*
X99543Y688575D01*
X101066Y692659D01*
X102877Y696624D01*
X104966Y700450D01*
X107322Y704117D01*
X109935Y707606D01*
X112789Y710900D01*
X115871Y713983D01*
X119165Y716837D01*
X122655Y719449D01*
X126322Y721806D01*
X130148Y723895D01*
X134113Y725706D01*
X138197Y727229D01*
X142379Y728457D01*
X146638Y729384D01*
X150953Y730004D01*
X155301Y730315D01*
X159660Y730315D01*
X164008Y730004D01*
X168322Y729384D01*
X172581Y728457D01*
X176764Y727229D01*
X180848Y725706D01*
X184813Y723895D01*
X188639Y721806D01*
X192306Y719449D01*
X195795Y716837D01*
X199089Y713983D01*
X202172Y710900D01*
X205026Y707606D01*
X207638Y704117D01*
X209995Y700450D01*
X212084Y696624D01*
X213895Y692659D01*
X215418Y688575D01*
X216646Y684392D01*
X217573Y680133D01*
X218193Y675819D01*
X218504Y671471D01*
X218504Y667112D01*
X218504Y1572624D02*
X218193Y1568276D01*
X217573Y1563961D01*
X216646Y1559702D01*
X215418Y1555520D01*
X213895Y1551436D01*
X212084Y1547470D01*
X209995Y1543645D01*
X207638Y1539978D01*
X205026Y1536488D01*
X202172Y1533194D01*
X199089Y1530112D01*
X195795Y1527257D01*
X192306Y1524645D01*
X188639Y1522289D01*
X184813Y1520199D01*
X180848Y1518389D01*
X176764Y1516865D01*
X172581Y1515637D01*
X168322Y1514711D01*
X164008Y1514091D01*
X159660Y1513780D01*
X155301Y1513780D01*
X150953Y1514091D01*
X146638Y1514711D01*
X142379Y1515637D01*
X138197Y1516865D01*
X134113Y1518389D01*
X130148Y1520199D01*
X126322Y1522289D01*
X122655Y1524645D01*
X119165Y1527257D01*
X115871Y1530112D01*
X112789Y1533194D01*
X109935Y1536488D01*
X107322Y1539978D01*
X104966Y1543645D01*
X102877Y1547470D01*
X101066Y1551436D01*
X99543Y1555520D01*
X98315Y1559702D01*
X97388Y1563961D01*
X96768Y1568276D01*
X96457Y1572624D01*
X96457Y1576983D01*
X96768Y1581330D01*
X97388Y1585645D01*
X98315Y1589904D01*
X99543Y1594087D01*
X101066Y1598171D01*
X102877Y1602136D01*
X104966Y1605961D01*
X107322Y1609628D01*
X109935Y1613118D01*
X112789Y1616412D01*
X115871Y1619494D01*
X119165Y1622349D01*
X122655Y1624961D01*
X126322Y1627318D01*
X130148Y1629407D01*
X134113Y1631218D01*
X138197Y1632741D01*
X142379Y1633969D01*
X146638Y1634895D01*
X150953Y1635516D01*
X155301Y1635827D01*
X159660Y1635827D01*
X164008Y1635516D01*
X168322Y1634895D01*
X172581Y1633969D01*
X176764Y1632741D01*
X180848Y1631218D01*
X184813Y1629407D01*
X188639Y1627318D01*
X192306Y1624961D01*
X195795Y1622349D01*
X199089Y1619494D01*
X202172Y1616412D01*
X205026Y1613118D01*
X207638Y1609628D01*
X209995Y1605961D01*
X212084Y1602136D01*
X213895Y1598171D01*
X215418Y1594087D01*
X216646Y1589904D01*
X217573Y1585645D01*
X218193Y1581330D01*
X218504Y1576983D01*
X218504Y1572624D01*
M02*
