M48
;GenerationSoftware,Autodesk,EAGLE,9.6.2*%
;CreationDate,2020-08-09T06:15:17Z*%
FMAT,2
ICI,OFF
INCH,TZ,00.0000
T5C0.0276
T4C0.0320
T3C0.0400
T2C0.1180
T1C0.1220
%
G90
M72
T1
X16142Y5118
X16142Y17323
X1575Y6693
X1575Y15748
T2
X12323Y4213
X11142Y2362
X13504Y2362
T3
X1787Y3756
X14173Y6480
X14173Y7480
X14173Y8480
X16142Y20972
X16142Y6917
X16142Y7917
X1697Y8870
X16142Y8917
X16142Y9917
X1697Y13870
X1697Y12870
X1697Y11870
X1697Y10870
X1697Y9870
X16142Y10917
X16142Y11917
X16142Y12917
X16142Y13917
X16142Y14917
X16142Y15917
X1575Y22079
X9737Y5563
X7177Y5563
X9737Y7343
X7177Y7343
X1575Y21079
X1575Y20079
X1575Y19079
X1575Y18079
X16142Y18972
X16142Y19972
X16142Y21972
X1787Y1756
X1787Y2756
T4
X5665Y2335
X5665Y1335
X4421Y3445
X4421Y4445
X13528Y16232
X14528Y16232
X14457Y17626
X11433Y9209
X12433Y9209
X13457Y17626
X5339Y15350
X4339Y15350
X11315Y8157
X11315Y5157
X2803Y16827
X5803Y16827
X9878Y8965
X9878Y9965
X9878Y10965
X9878Y11965
X9878Y12965
X9878Y13965
X9878Y14965
X9878Y15965
X9878Y16965
X9878Y17965
X9878Y18965
X9878Y19965
X9878Y20965
X6878Y13965
X6878Y12965
X6878Y11965
X6878Y10965
X6878Y9965
X6878Y8965
X6878Y21965
X9878Y21965
X6878Y20965
X3224Y5906
X6224Y5906
X5224Y7480
X4224Y7480
X6878Y19965
X6878Y18965
X6878Y17965
X6878Y16965
X6878Y15965
X6878Y14965
T5
X12051Y15787
X12051Y17787
M30