G04 EAGLE Gerber X2 export*
%TF.Part,Single*%
%TF.FileFunction,Legend,Bot,1*%
%TF.FilePolarity,Positive*%
%TF.GenerationSoftware,Autodesk,EAGLE,9.6.2*%
%TF.CreationDate,2020-08-09T06:15:17Z*%
G75*
%MOIN*%
%FSLAX36Y36*%
%LPD*%
%INBottom Silkscreen*%
%AMOC8*
5,1,8,0,0,1.08239X$1,22.5*%
G01*
%ADD10C,0.006000*%
%ADD11C,0.003000*%


D10*
X837795Y125984D02*
X894488Y125984D01*
X894488Y188976D02*
X837795Y188976D01*
D11*
X895653Y104799D02*
X895653Y68429D01*
X895653Y104799D02*
X879488Y104799D01*
X879488Y88635D02*
X895653Y88635D01*
X866194Y96717D02*
X856091Y104799D01*
X856091Y68429D01*
X866194Y68429D02*
X845988Y68429D01*
X1119869Y258343D02*
X1129972Y250260D01*
X1119869Y258343D02*
X1119869Y221972D01*
X1109767Y221972D02*
X1129972Y221972D01*
X1083426Y258343D02*
X1083203Y258340D01*
X1082980Y258332D01*
X1082757Y258318D01*
X1082535Y258299D01*
X1082313Y258275D01*
X1082092Y258245D01*
X1081871Y258209D01*
X1081652Y258168D01*
X1081434Y258122D01*
X1081216Y258070D01*
X1081001Y258014D01*
X1080786Y257951D01*
X1080574Y257884D01*
X1080363Y257811D01*
X1080153Y257734D01*
X1079946Y257651D01*
X1079741Y257563D01*
X1079538Y257470D01*
X1079338Y257372D01*
X1079140Y257269D01*
X1078944Y257162D01*
X1078751Y257049D01*
X1078561Y256932D01*
X1078374Y256811D01*
X1078190Y256684D01*
X1078009Y256554D01*
X1077832Y256418D01*
X1077657Y256279D01*
X1077487Y256135D01*
X1077319Y255987D01*
X1077156Y255836D01*
X1076996Y255680D01*
X1076840Y255520D01*
X1076688Y255356D01*
X1076541Y255189D01*
X1076397Y255018D01*
X1076258Y254844D01*
X1076122Y254667D01*
X1075992Y254486D01*
X1075865Y254302D01*
X1075744Y254115D01*
X1075627Y253925D01*
X1075514Y253732D01*
X1075407Y253536D01*
X1075304Y253338D01*
X1075206Y253138D01*
X1075113Y252935D01*
X1075025Y252730D01*
X1074942Y252522D01*
X1074865Y252313D01*
X1074792Y252102D01*
X1074725Y251890D01*
X1074662Y251675D01*
X1074606Y251459D01*
X1074554Y251242D01*
X1074508Y251024D01*
X1074467Y250805D01*
X1074431Y250584D01*
X1074401Y250363D01*
X1074377Y250141D01*
X1074358Y249919D01*
X1074344Y249696D01*
X1074336Y249473D01*
X1074333Y249250D01*
X1083426Y258342D02*
X1083708Y258339D01*
X1083991Y258328D01*
X1084273Y258311D01*
X1084554Y258287D01*
X1084835Y258257D01*
X1085115Y258219D01*
X1085394Y258175D01*
X1085672Y258124D01*
X1085948Y258066D01*
X1086223Y258002D01*
X1086497Y257931D01*
X1086769Y257854D01*
X1087038Y257769D01*
X1087306Y257679D01*
X1087571Y257582D01*
X1087834Y257478D01*
X1088094Y257369D01*
X1088352Y257253D01*
X1088607Y257130D01*
X1088858Y257002D01*
X1089107Y256868D01*
X1089352Y256727D01*
X1089594Y256581D01*
X1089832Y256429D01*
X1090066Y256271D01*
X1090296Y256108D01*
X1090523Y255939D01*
X1090745Y255765D01*
X1090963Y255585D01*
X1091177Y255400D01*
X1091386Y255210D01*
X1091590Y255015D01*
X1091790Y254815D01*
X1091985Y254611D01*
X1092174Y254401D01*
X1092359Y254187D01*
X1092538Y253969D01*
X1092713Y253747D01*
X1092881Y253520D01*
X1093044Y253289D01*
X1093202Y253055D01*
X1093353Y252817D01*
X1093499Y252575D01*
X1093640Y252329D01*
X1093774Y252081D01*
X1093902Y251829D01*
X1094024Y251574D01*
X1094139Y251316D01*
X1094249Y251056D01*
X1094352Y250793D01*
X1094449Y250527D01*
X1094539Y250260D01*
X1077364Y242178D02*
X1077193Y242345D01*
X1077025Y242517D01*
X1076862Y242692D01*
X1076703Y242872D01*
X1076549Y243055D01*
X1076399Y243242D01*
X1076254Y243433D01*
X1076114Y243627D01*
X1075978Y243825D01*
X1075848Y244026D01*
X1075722Y244230D01*
X1075601Y244437D01*
X1075486Y244647D01*
X1075375Y244860D01*
X1075270Y245075D01*
X1075171Y245293D01*
X1075076Y245513D01*
X1074987Y245736D01*
X1074904Y245960D01*
X1074826Y246187D01*
X1074753Y246416D01*
X1074687Y246646D01*
X1074626Y246877D01*
X1074570Y247111D01*
X1074521Y247345D01*
X1074477Y247581D01*
X1074439Y247817D01*
X1074406Y248055D01*
X1074380Y248293D01*
X1074359Y248532D01*
X1074345Y248771D01*
X1074336Y249010D01*
X1074333Y249250D01*
X1077365Y242178D02*
X1094539Y221972D01*
X1074334Y221972D01*
X1059106Y240157D02*
X1059097Y240872D01*
X1059072Y241588D01*
X1059029Y242302D01*
X1058969Y243015D01*
X1058893Y243726D01*
X1058799Y244435D01*
X1058688Y245142D01*
X1058561Y245846D01*
X1058417Y246547D01*
X1058256Y247244D01*
X1058078Y247938D01*
X1057885Y248626D01*
X1057674Y249310D01*
X1057448Y249989D01*
X1057205Y250662D01*
X1056946Y251329D01*
X1056671Y251990D01*
X1056381Y252644D01*
X1056075Y253291D01*
X1056076Y253292D02*
X1056015Y253463D01*
X1055950Y253633D01*
X1055880Y253801D01*
X1055807Y253967D01*
X1055730Y254132D01*
X1055648Y254294D01*
X1055563Y254455D01*
X1055474Y254613D01*
X1055381Y254770D01*
X1055284Y254923D01*
X1055183Y255075D01*
X1055079Y255224D01*
X1054971Y255370D01*
X1054860Y255514D01*
X1054745Y255655D01*
X1054627Y255794D01*
X1054506Y255929D01*
X1054381Y256061D01*
X1054253Y256190D01*
X1054122Y256316D01*
X1053988Y256439D01*
X1053851Y256559D01*
X1053711Y256675D01*
X1053568Y256788D01*
X1053423Y256897D01*
X1053275Y257003D01*
X1053125Y257105D01*
X1052972Y257203D01*
X1052816Y257298D01*
X1052659Y257389D01*
X1052499Y257476D01*
X1052337Y257559D01*
X1052174Y257638D01*
X1052008Y257713D01*
X1051841Y257784D01*
X1051672Y257851D01*
X1051501Y257914D01*
X1051329Y257972D01*
X1051155Y258027D01*
X1050981Y258077D01*
X1050805Y258123D01*
X1050628Y258165D01*
X1050450Y258202D01*
X1050271Y258235D01*
X1050091Y258264D01*
X1049911Y258288D01*
X1049730Y258308D01*
X1049549Y258323D01*
X1049368Y258334D01*
X1049186Y258341D01*
X1049004Y258343D01*
X1049004Y258342D02*
X1048822Y258340D01*
X1048640Y258333D01*
X1048459Y258322D01*
X1048278Y258307D01*
X1048097Y258287D01*
X1047917Y258263D01*
X1047737Y258234D01*
X1047558Y258201D01*
X1047380Y258164D01*
X1047203Y258122D01*
X1047028Y258076D01*
X1046853Y258026D01*
X1046679Y257971D01*
X1046507Y257913D01*
X1046336Y257850D01*
X1046167Y257783D01*
X1046000Y257712D01*
X1045834Y257637D01*
X1045671Y257558D01*
X1045509Y257475D01*
X1045349Y257388D01*
X1045192Y257297D01*
X1045036Y257202D01*
X1044883Y257104D01*
X1044733Y257002D01*
X1044585Y256896D01*
X1044440Y256787D01*
X1044297Y256674D01*
X1044157Y256558D01*
X1044020Y256438D01*
X1043886Y256316D01*
X1043755Y256189D01*
X1043627Y256060D01*
X1043502Y255928D01*
X1043381Y255793D01*
X1043263Y255654D01*
X1043148Y255513D01*
X1043037Y255370D01*
X1042929Y255223D01*
X1042825Y255074D01*
X1042724Y254923D01*
X1042627Y254769D01*
X1042534Y254612D01*
X1042445Y254454D01*
X1042360Y254293D01*
X1042279Y254131D01*
X1042201Y253966D01*
X1042128Y253800D01*
X1042058Y253632D01*
X1041993Y253462D01*
X1041932Y253291D01*
X1041626Y252644D01*
X1041336Y251990D01*
X1041061Y251329D01*
X1040802Y250662D01*
X1040560Y249989D01*
X1040333Y249310D01*
X1040123Y248626D01*
X1039929Y247938D01*
X1039751Y247244D01*
X1039590Y246547D01*
X1039446Y245846D01*
X1039319Y245142D01*
X1039208Y244435D01*
X1039114Y243726D01*
X1039038Y243015D01*
X1038978Y242302D01*
X1038935Y241588D01*
X1038910Y240872D01*
X1038901Y240157D01*
X1059106Y240157D02*
X1059097Y239442D01*
X1059072Y238726D01*
X1059029Y238012D01*
X1058969Y237299D01*
X1058893Y236588D01*
X1058799Y235878D01*
X1058688Y235172D01*
X1058561Y234467D01*
X1058417Y233767D01*
X1058256Y233069D01*
X1058078Y232376D01*
X1057885Y231688D01*
X1057674Y231004D01*
X1057448Y230325D01*
X1057205Y229652D01*
X1056946Y228985D01*
X1056671Y228324D01*
X1056381Y227670D01*
X1056075Y227023D01*
X1056076Y227023D02*
X1056015Y226852D01*
X1055950Y226682D01*
X1055880Y226514D01*
X1055807Y226348D01*
X1055729Y226183D01*
X1055648Y226021D01*
X1055563Y225860D01*
X1055474Y225702D01*
X1055381Y225545D01*
X1055284Y225391D01*
X1055183Y225240D01*
X1055079Y225091D01*
X1054971Y224944D01*
X1054860Y224801D01*
X1054745Y224660D01*
X1054627Y224521D01*
X1054506Y224386D01*
X1054381Y224254D01*
X1054253Y224125D01*
X1054122Y223998D01*
X1053988Y223876D01*
X1053851Y223756D01*
X1053711Y223640D01*
X1053568Y223527D01*
X1053423Y223418D01*
X1053275Y223312D01*
X1053125Y223210D01*
X1052972Y223112D01*
X1052816Y223017D01*
X1052659Y222926D01*
X1052499Y222839D01*
X1052337Y222756D01*
X1052174Y222677D01*
X1052008Y222602D01*
X1051841Y222531D01*
X1051672Y222464D01*
X1051501Y222401D01*
X1051329Y222343D01*
X1051155Y222288D01*
X1050980Y222238D01*
X1050805Y222192D01*
X1050628Y222150D01*
X1050450Y222113D01*
X1050271Y222080D01*
X1050091Y222051D01*
X1049911Y222027D01*
X1049730Y222007D01*
X1049549Y221992D01*
X1049368Y221981D01*
X1049186Y221974D01*
X1049004Y221972D01*
X1041932Y227023D02*
X1041626Y227670D01*
X1041336Y228324D01*
X1041061Y228985D01*
X1040802Y229652D01*
X1040560Y230325D01*
X1040333Y231004D01*
X1040123Y231688D01*
X1039929Y232376D01*
X1039751Y233069D01*
X1039590Y233767D01*
X1039446Y234467D01*
X1039319Y235172D01*
X1039208Y235878D01*
X1039114Y236588D01*
X1039038Y237299D01*
X1038978Y238012D01*
X1038935Y238726D01*
X1038910Y239442D01*
X1038901Y240157D01*
X1041932Y227024D02*
X1041993Y226853D01*
X1042058Y226683D01*
X1042128Y226515D01*
X1042201Y226349D01*
X1042279Y226184D01*
X1042360Y226022D01*
X1042445Y225861D01*
X1042534Y225703D01*
X1042627Y225546D01*
X1042724Y225392D01*
X1042825Y225241D01*
X1042929Y225092D01*
X1043037Y224945D01*
X1043148Y224802D01*
X1043263Y224661D01*
X1043381Y224522D01*
X1043502Y224387D01*
X1043627Y224255D01*
X1043755Y224125D01*
X1043886Y223999D01*
X1044020Y223877D01*
X1044157Y223757D01*
X1044297Y223641D01*
X1044440Y223528D01*
X1044585Y223419D01*
X1044733Y223313D01*
X1044884Y223211D01*
X1045036Y223113D01*
X1045192Y223018D01*
X1045349Y222927D01*
X1045509Y222840D01*
X1045671Y222757D01*
X1045834Y222678D01*
X1046000Y222603D01*
X1046167Y222532D01*
X1046337Y222465D01*
X1046507Y222402D01*
X1046679Y222344D01*
X1046853Y222289D01*
X1047028Y222239D01*
X1047203Y222193D01*
X1047380Y222151D01*
X1047558Y222114D01*
X1047737Y222081D01*
X1047917Y222052D01*
X1048097Y222028D01*
X1048278Y222008D01*
X1048459Y221993D01*
X1048640Y221982D01*
X1048822Y221975D01*
X1049004Y221973D01*
X1057086Y230055D02*
X1040921Y250260D01*
X1023673Y242178D02*
X1011550Y242178D01*
X1011352Y242176D01*
X1011153Y242168D01*
X1010955Y242156D01*
X1010758Y242139D01*
X1010561Y242117D01*
X1010364Y242091D01*
X1010168Y242059D01*
X1009973Y242023D01*
X1009779Y241982D01*
X1009586Y241936D01*
X1009394Y241885D01*
X1009204Y241830D01*
X1009015Y241770D01*
X1008827Y241706D01*
X1008641Y241636D01*
X1008457Y241563D01*
X1008275Y241485D01*
X1008095Y241402D01*
X1007916Y241315D01*
X1007740Y241224D01*
X1007566Y241128D01*
X1007395Y241028D01*
X1007226Y240924D01*
X1007060Y240816D01*
X1006896Y240704D01*
X1006736Y240588D01*
X1006578Y240467D01*
X1006423Y240344D01*
X1006271Y240216D01*
X1006123Y240084D01*
X1005977Y239949D01*
X1005835Y239811D01*
X1005697Y239669D01*
X1005562Y239524D01*
X1005430Y239375D01*
X1005303Y239223D01*
X1005179Y239068D01*
X1005059Y238911D01*
X1004942Y238750D01*
X1004830Y238586D01*
X1004722Y238420D01*
X1004618Y238251D01*
X1004518Y238080D01*
X1004422Y237906D01*
X1004331Y237730D01*
X1004244Y237552D01*
X1004161Y237371D01*
X1004083Y237189D01*
X1004010Y237005D01*
X1003940Y236819D01*
X1003876Y236631D01*
X1003816Y236442D01*
X1003761Y236252D01*
X1003710Y236060D01*
X1003664Y235867D01*
X1003623Y235673D01*
X1003587Y235478D01*
X1003555Y235282D01*
X1003529Y235085D01*
X1003507Y234888D01*
X1003490Y234691D01*
X1003478Y234493D01*
X1003470Y234294D01*
X1003468Y234096D01*
X1003468Y232075D01*
X1003467Y232075D02*
X1003470Y231829D01*
X1003479Y231583D01*
X1003494Y231338D01*
X1003515Y231092D01*
X1003542Y230848D01*
X1003575Y230604D01*
X1003613Y230361D01*
X1003658Y230119D01*
X1003709Y229878D01*
X1003765Y229639D01*
X1003827Y229401D01*
X1003895Y229164D01*
X1003969Y228930D01*
X1004049Y228697D01*
X1004134Y228466D01*
X1004224Y228237D01*
X1004321Y228011D01*
X1004422Y227787D01*
X1004529Y227565D01*
X1004642Y227346D01*
X1004760Y227130D01*
X1004883Y226917D01*
X1005011Y226707D01*
X1005144Y226500D01*
X1005282Y226297D01*
X1005426Y226097D01*
X1005574Y225900D01*
X1005726Y225707D01*
X1005884Y225518D01*
X1006046Y225333D01*
X1006212Y225152D01*
X1006383Y224975D01*
X1006558Y224802D01*
X1006737Y224633D01*
X1006920Y224469D01*
X1007107Y224309D01*
X1007298Y224154D01*
X1007493Y224004D01*
X1007691Y223858D01*
X1007893Y223718D01*
X1008099Y223582D01*
X1008307Y223451D01*
X1008519Y223326D01*
X1008733Y223205D01*
X1008950Y223090D01*
X1009171Y222980D01*
X1009393Y222876D01*
X1009619Y222777D01*
X1009846Y222683D01*
X1010076Y222595D01*
X1010308Y222513D01*
X1010542Y222437D01*
X1010777Y222366D01*
X1011015Y222301D01*
X1011253Y222241D01*
X1011494Y222188D01*
X1011735Y222140D01*
X1011977Y222098D01*
X1012221Y222062D01*
X1012465Y222033D01*
X1012710Y222009D01*
X1012955Y221991D01*
X1013201Y221979D01*
X1013447Y221973D01*
X1013693Y221973D01*
X1013939Y221979D01*
X1014185Y221991D01*
X1014430Y222009D01*
X1014675Y222033D01*
X1014919Y222062D01*
X1015163Y222098D01*
X1015405Y222140D01*
X1015646Y222188D01*
X1015887Y222241D01*
X1016125Y222301D01*
X1016363Y222366D01*
X1016598Y222437D01*
X1016832Y222513D01*
X1017064Y222595D01*
X1017294Y222683D01*
X1017521Y222777D01*
X1017747Y222876D01*
X1017969Y222980D01*
X1018190Y223090D01*
X1018407Y223205D01*
X1018622Y223326D01*
X1018833Y223451D01*
X1019041Y223582D01*
X1019247Y223718D01*
X1019449Y223858D01*
X1019647Y224004D01*
X1019842Y224154D01*
X1020033Y224309D01*
X1020220Y224469D01*
X1020403Y224633D01*
X1020582Y224802D01*
X1020757Y224975D01*
X1020928Y225152D01*
X1021094Y225333D01*
X1021256Y225518D01*
X1021414Y225707D01*
X1021566Y225900D01*
X1021714Y226097D01*
X1021858Y226297D01*
X1021996Y226500D01*
X1022129Y226707D01*
X1022257Y226917D01*
X1022380Y227130D01*
X1022498Y227346D01*
X1022611Y227565D01*
X1022718Y227787D01*
X1022819Y228011D01*
X1022916Y228237D01*
X1023006Y228466D01*
X1023091Y228697D01*
X1023171Y228930D01*
X1023245Y229164D01*
X1023313Y229401D01*
X1023375Y229639D01*
X1023431Y229878D01*
X1023482Y230119D01*
X1023527Y230361D01*
X1023565Y230604D01*
X1023598Y230848D01*
X1023625Y231092D01*
X1023646Y231338D01*
X1023661Y231583D01*
X1023670Y231829D01*
X1023673Y232075D01*
X1023673Y242178D01*
X1023668Y242569D01*
X1023654Y242959D01*
X1023631Y243349D01*
X1023598Y243738D01*
X1023555Y244126D01*
X1023503Y244514D01*
X1023442Y244899D01*
X1023372Y245284D01*
X1023292Y245666D01*
X1023203Y246046D01*
X1023105Y246424D01*
X1022998Y246800D01*
X1022882Y247173D01*
X1022757Y247543D01*
X1022623Y247910D01*
X1022480Y248273D01*
X1022328Y248633D01*
X1022168Y248990D01*
X1021999Y249342D01*
X1021822Y249690D01*
X1021636Y250033D01*
X1021442Y250372D01*
X1021240Y250707D01*
X1021030Y251036D01*
X1020812Y251360D01*
X1020586Y251679D01*
X1020353Y251992D01*
X1020112Y252300D01*
X1019863Y252601D01*
X1019608Y252897D01*
X1019345Y253186D01*
X1019076Y253469D01*
X1018800Y253745D01*
X1018517Y254014D01*
X1018228Y254277D01*
X1017932Y254532D01*
X1017631Y254781D01*
X1017323Y255022D01*
X1017010Y255255D01*
X1016691Y255481D01*
X1016367Y255699D01*
X1016038Y255909D01*
X1015703Y256111D01*
X1015364Y256305D01*
X1015021Y256491D01*
X1014673Y256668D01*
X1014321Y256837D01*
X1013964Y256997D01*
X1013604Y257149D01*
X1013241Y257292D01*
X1012874Y257426D01*
X1012504Y257551D01*
X1012131Y257667D01*
X1011755Y257774D01*
X1011377Y257872D01*
X1010997Y257961D01*
X1010615Y258041D01*
X1010230Y258111D01*
X1009845Y258172D01*
X1009457Y258224D01*
X1009069Y258267D01*
X1008680Y258300D01*
X1008290Y258323D01*
X1007900Y258337D01*
X1007509Y258342D01*
X986991Y258343D02*
X986991Y221972D01*
X970827Y221972D01*
X957532Y240157D02*
X957523Y240872D01*
X957498Y241588D01*
X957455Y242302D01*
X957395Y243015D01*
X957319Y243726D01*
X957225Y244435D01*
X957114Y245142D01*
X956987Y245846D01*
X956843Y246547D01*
X956682Y247244D01*
X956504Y247938D01*
X956311Y248626D01*
X956100Y249310D01*
X955874Y249989D01*
X955631Y250662D01*
X955372Y251329D01*
X955097Y251990D01*
X954807Y252644D01*
X954501Y253291D01*
X954501Y253292D02*
X954440Y253463D01*
X954375Y253633D01*
X954305Y253801D01*
X954232Y253967D01*
X954155Y254132D01*
X954073Y254294D01*
X953988Y254455D01*
X953899Y254613D01*
X953806Y254770D01*
X953709Y254923D01*
X953608Y255075D01*
X953504Y255224D01*
X953396Y255370D01*
X953285Y255514D01*
X953170Y255655D01*
X953052Y255794D01*
X952931Y255929D01*
X952806Y256061D01*
X952678Y256190D01*
X952547Y256316D01*
X952413Y256439D01*
X952276Y256559D01*
X952136Y256675D01*
X951993Y256788D01*
X951848Y256897D01*
X951700Y257003D01*
X951550Y257105D01*
X951397Y257203D01*
X951241Y257298D01*
X951084Y257389D01*
X950924Y257476D01*
X950762Y257559D01*
X950599Y257638D01*
X950433Y257713D01*
X950266Y257784D01*
X950097Y257851D01*
X949926Y257914D01*
X949754Y257972D01*
X949580Y258027D01*
X949406Y258077D01*
X949230Y258123D01*
X949053Y258165D01*
X948875Y258202D01*
X948696Y258235D01*
X948516Y258264D01*
X948336Y258288D01*
X948155Y258308D01*
X947974Y258323D01*
X947793Y258334D01*
X947611Y258341D01*
X947429Y258343D01*
X947429Y258342D02*
X947247Y258340D01*
X947065Y258333D01*
X946884Y258322D01*
X946703Y258307D01*
X946522Y258287D01*
X946342Y258263D01*
X946162Y258234D01*
X945983Y258201D01*
X945805Y258164D01*
X945628Y258122D01*
X945453Y258076D01*
X945278Y258026D01*
X945104Y257971D01*
X944932Y257913D01*
X944761Y257850D01*
X944592Y257783D01*
X944425Y257712D01*
X944259Y257637D01*
X944096Y257558D01*
X943934Y257475D01*
X943774Y257388D01*
X943617Y257297D01*
X943461Y257202D01*
X943308Y257104D01*
X943158Y257002D01*
X943010Y256896D01*
X942865Y256787D01*
X942722Y256674D01*
X942582Y256558D01*
X942445Y256438D01*
X942311Y256316D01*
X942180Y256189D01*
X942052Y256060D01*
X941927Y255928D01*
X941806Y255793D01*
X941688Y255654D01*
X941573Y255513D01*
X941462Y255370D01*
X941354Y255223D01*
X941250Y255074D01*
X941149Y254923D01*
X941052Y254769D01*
X940959Y254612D01*
X940870Y254454D01*
X940785Y254293D01*
X940704Y254131D01*
X940626Y253966D01*
X940553Y253800D01*
X940483Y253632D01*
X940418Y253462D01*
X940357Y253291D01*
X940051Y252644D01*
X939761Y251990D01*
X939486Y251329D01*
X939227Y250662D01*
X938985Y249989D01*
X938758Y249310D01*
X938548Y248626D01*
X938354Y247938D01*
X938176Y247244D01*
X938015Y246547D01*
X937871Y245846D01*
X937744Y245142D01*
X937633Y244435D01*
X937539Y243726D01*
X937463Y243015D01*
X937403Y242302D01*
X937360Y241588D01*
X937335Y240872D01*
X937326Y240157D01*
X957532Y240157D02*
X957523Y239442D01*
X957498Y238726D01*
X957455Y238012D01*
X957395Y237299D01*
X957319Y236588D01*
X957225Y235878D01*
X957114Y235172D01*
X956987Y234467D01*
X956843Y233767D01*
X956682Y233069D01*
X956504Y232376D01*
X956311Y231688D01*
X956100Y231004D01*
X955874Y230325D01*
X955631Y229652D01*
X955372Y228985D01*
X955097Y228324D01*
X954807Y227670D01*
X954501Y227023D01*
X954440Y226852D01*
X954375Y226682D01*
X954305Y226514D01*
X954232Y226348D01*
X954154Y226183D01*
X954073Y226021D01*
X953988Y225860D01*
X953899Y225702D01*
X953806Y225545D01*
X953709Y225391D01*
X953608Y225240D01*
X953504Y225091D01*
X953396Y224944D01*
X953285Y224801D01*
X953170Y224660D01*
X953052Y224521D01*
X952931Y224386D01*
X952806Y224254D01*
X952678Y224125D01*
X952547Y223998D01*
X952413Y223876D01*
X952276Y223756D01*
X952136Y223640D01*
X951993Y223527D01*
X951848Y223418D01*
X951700Y223312D01*
X951550Y223210D01*
X951397Y223112D01*
X951241Y223017D01*
X951084Y222926D01*
X950924Y222839D01*
X950762Y222756D01*
X950599Y222677D01*
X950433Y222602D01*
X950266Y222531D01*
X950097Y222464D01*
X949926Y222401D01*
X949754Y222343D01*
X949580Y222288D01*
X949405Y222238D01*
X949230Y222192D01*
X949053Y222150D01*
X948875Y222113D01*
X948696Y222080D01*
X948516Y222051D01*
X948336Y222027D01*
X948155Y222007D01*
X947974Y221992D01*
X947793Y221981D01*
X947611Y221974D01*
X947429Y221972D01*
X940357Y227023D02*
X940051Y227670D01*
X939761Y228324D01*
X939486Y228985D01*
X939227Y229652D01*
X938985Y230325D01*
X938758Y231004D01*
X938548Y231688D01*
X938354Y232376D01*
X938176Y233069D01*
X938015Y233767D01*
X937871Y234467D01*
X937744Y235172D01*
X937633Y235878D01*
X937539Y236588D01*
X937463Y237299D01*
X937403Y238012D01*
X937360Y238726D01*
X937335Y239442D01*
X937326Y240157D01*
X940357Y227024D02*
X940418Y226853D01*
X940483Y226683D01*
X940553Y226515D01*
X940626Y226349D01*
X940704Y226184D01*
X940785Y226022D01*
X940870Y225861D01*
X940959Y225703D01*
X941052Y225546D01*
X941149Y225392D01*
X941250Y225241D01*
X941354Y225092D01*
X941462Y224945D01*
X941573Y224802D01*
X941688Y224661D01*
X941806Y224522D01*
X941927Y224387D01*
X942052Y224255D01*
X942180Y224125D01*
X942311Y223999D01*
X942445Y223877D01*
X942582Y223757D01*
X942722Y223641D01*
X942865Y223528D01*
X943010Y223419D01*
X943158Y223313D01*
X943309Y223211D01*
X943461Y223113D01*
X943617Y223018D01*
X943774Y222927D01*
X943934Y222840D01*
X944096Y222757D01*
X944259Y222678D01*
X944425Y222603D01*
X944592Y222532D01*
X944762Y222465D01*
X944932Y222402D01*
X945104Y222344D01*
X945278Y222289D01*
X945453Y222239D01*
X945628Y222193D01*
X945805Y222151D01*
X945983Y222114D01*
X946162Y222081D01*
X946342Y222052D01*
X946522Y222028D01*
X946703Y222008D01*
X946884Y221993D01*
X947065Y221982D01*
X947247Y221975D01*
X947429Y221973D01*
X955511Y230055D02*
X939347Y250260D01*
X922099Y254301D02*
X922099Y258343D01*
X901893Y258343D01*
X911996Y221972D01*
X886666Y221972D02*
X874543Y221972D01*
X874543Y221973D02*
X874345Y221975D01*
X874146Y221983D01*
X873948Y221995D01*
X873751Y222012D01*
X873554Y222034D01*
X873357Y222060D01*
X873161Y222092D01*
X872966Y222128D01*
X872772Y222169D01*
X872579Y222215D01*
X872387Y222266D01*
X872197Y222321D01*
X872008Y222381D01*
X871820Y222445D01*
X871634Y222515D01*
X871450Y222588D01*
X871268Y222666D01*
X871088Y222749D01*
X870909Y222836D01*
X870733Y222927D01*
X870559Y223023D01*
X870388Y223123D01*
X870219Y223227D01*
X870053Y223335D01*
X869889Y223447D01*
X869729Y223563D01*
X869571Y223684D01*
X869416Y223807D01*
X869264Y223935D01*
X869116Y224067D01*
X868970Y224202D01*
X868828Y224340D01*
X868690Y224482D01*
X868555Y224627D01*
X868423Y224776D01*
X868296Y224928D01*
X868172Y225083D01*
X868052Y225240D01*
X867935Y225401D01*
X867823Y225565D01*
X867715Y225731D01*
X867611Y225900D01*
X867511Y226071D01*
X867415Y226245D01*
X867324Y226421D01*
X867237Y226599D01*
X867154Y226780D01*
X867076Y226962D01*
X867003Y227146D01*
X866934Y227332D01*
X866869Y227520D01*
X866809Y227709D01*
X866754Y227899D01*
X866703Y228091D01*
X866657Y228284D01*
X866616Y228478D01*
X866580Y228673D01*
X866549Y228869D01*
X866522Y229065D01*
X866500Y229263D01*
X866483Y229460D01*
X866471Y229658D01*
X866463Y229856D01*
X866461Y230055D01*
X866460Y230055D02*
X866460Y234096D01*
X866461Y234096D02*
X866463Y234291D01*
X866470Y234486D01*
X866482Y234681D01*
X866499Y234876D01*
X866520Y235070D01*
X866546Y235264D01*
X866576Y235457D01*
X866612Y235649D01*
X866651Y235840D01*
X866696Y236030D01*
X866745Y236219D01*
X866798Y236407D01*
X866857Y236593D01*
X866919Y236779D01*
X866986Y236962D01*
X867058Y237144D01*
X867133Y237324D01*
X867214Y237502D01*
X867298Y237678D01*
X867387Y237852D01*
X867480Y238024D01*
X867577Y238193D01*
X867678Y238360D01*
X867783Y238525D01*
X867892Y238687D01*
X868005Y238847D01*
X868121Y239003D01*
X868242Y239157D01*
X868366Y239308D01*
X868494Y239455D01*
X868625Y239600D01*
X868760Y239741D01*
X868898Y239880D01*
X869039Y240014D01*
X869184Y240146D01*
X869331Y240273D01*
X869482Y240397D01*
X869636Y240518D01*
X869793Y240635D01*
X869952Y240747D01*
X870114Y240856D01*
X870279Y240961D01*
X870446Y241062D01*
X870615Y241159D01*
X870787Y241252D01*
X870961Y241341D01*
X871137Y241425D01*
X871315Y241506D01*
X871495Y241581D01*
X871677Y241653D01*
X871861Y241720D01*
X872046Y241782D01*
X872232Y241841D01*
X872420Y241894D01*
X872609Y241943D01*
X872799Y241988D01*
X872990Y242027D01*
X873182Y242063D01*
X873375Y242093D01*
X873569Y242119D01*
X873763Y242140D01*
X873958Y242157D01*
X874153Y242169D01*
X874348Y242176D01*
X874543Y242178D01*
X886666Y242178D01*
X886666Y258343D01*
X866460Y258343D01*
X836591Y262384D02*
X852756Y217931D01*
X822887Y250260D02*
X812784Y258343D01*
X812784Y221972D01*
X822887Y221972D02*
X802681Y221972D01*
X787454Y242178D02*
X775330Y242178D01*
X775132Y242176D01*
X774933Y242168D01*
X774735Y242156D01*
X774538Y242139D01*
X774341Y242117D01*
X774144Y242091D01*
X773948Y242059D01*
X773753Y242023D01*
X773559Y241982D01*
X773366Y241936D01*
X773174Y241885D01*
X772984Y241830D01*
X772795Y241770D01*
X772607Y241706D01*
X772421Y241636D01*
X772237Y241563D01*
X772055Y241485D01*
X771875Y241402D01*
X771696Y241315D01*
X771520Y241224D01*
X771346Y241128D01*
X771175Y241028D01*
X771006Y240924D01*
X770840Y240816D01*
X770676Y240704D01*
X770516Y240588D01*
X770358Y240467D01*
X770203Y240344D01*
X770051Y240216D01*
X769903Y240084D01*
X769757Y239949D01*
X769615Y239811D01*
X769477Y239669D01*
X769342Y239524D01*
X769210Y239375D01*
X769083Y239223D01*
X768959Y239068D01*
X768839Y238911D01*
X768722Y238750D01*
X768610Y238586D01*
X768502Y238420D01*
X768398Y238251D01*
X768298Y238080D01*
X768202Y237906D01*
X768111Y237730D01*
X768024Y237552D01*
X767941Y237371D01*
X767863Y237189D01*
X767790Y237005D01*
X767720Y236819D01*
X767656Y236631D01*
X767596Y236442D01*
X767541Y236252D01*
X767490Y236060D01*
X767444Y235867D01*
X767403Y235673D01*
X767367Y235478D01*
X767335Y235282D01*
X767309Y235085D01*
X767287Y234888D01*
X767270Y234691D01*
X767258Y234493D01*
X767250Y234294D01*
X767248Y234096D01*
X767248Y232075D01*
X767251Y231829D01*
X767260Y231583D01*
X767275Y231338D01*
X767296Y231092D01*
X767323Y230848D01*
X767356Y230604D01*
X767394Y230361D01*
X767439Y230119D01*
X767490Y229878D01*
X767546Y229639D01*
X767608Y229401D01*
X767676Y229164D01*
X767750Y228930D01*
X767830Y228697D01*
X767915Y228466D01*
X768005Y228237D01*
X768102Y228011D01*
X768203Y227787D01*
X768310Y227565D01*
X768423Y227346D01*
X768541Y227130D01*
X768664Y226917D01*
X768792Y226707D01*
X768925Y226500D01*
X769063Y226297D01*
X769207Y226097D01*
X769355Y225900D01*
X769507Y225707D01*
X769665Y225518D01*
X769827Y225333D01*
X769993Y225152D01*
X770164Y224975D01*
X770339Y224802D01*
X770518Y224633D01*
X770701Y224469D01*
X770888Y224309D01*
X771079Y224154D01*
X771274Y224004D01*
X771472Y223858D01*
X771674Y223718D01*
X771880Y223582D01*
X772088Y223451D01*
X772300Y223326D01*
X772514Y223205D01*
X772731Y223090D01*
X772952Y222980D01*
X773174Y222876D01*
X773400Y222777D01*
X773627Y222683D01*
X773857Y222595D01*
X774089Y222513D01*
X774323Y222437D01*
X774558Y222366D01*
X774796Y222301D01*
X775034Y222241D01*
X775275Y222188D01*
X775516Y222140D01*
X775758Y222098D01*
X776002Y222062D01*
X776246Y222033D01*
X776491Y222009D01*
X776736Y221991D01*
X776982Y221979D01*
X777228Y221973D01*
X777474Y221973D01*
X777720Y221979D01*
X777966Y221991D01*
X778211Y222009D01*
X778456Y222033D01*
X778700Y222062D01*
X778944Y222098D01*
X779186Y222140D01*
X779427Y222188D01*
X779668Y222241D01*
X779906Y222301D01*
X780144Y222366D01*
X780379Y222437D01*
X780613Y222513D01*
X780845Y222595D01*
X781075Y222683D01*
X781302Y222777D01*
X781528Y222876D01*
X781750Y222980D01*
X781971Y223090D01*
X782188Y223205D01*
X782403Y223326D01*
X782614Y223451D01*
X782822Y223582D01*
X783028Y223718D01*
X783230Y223858D01*
X783428Y224004D01*
X783623Y224154D01*
X783814Y224309D01*
X784001Y224469D01*
X784184Y224633D01*
X784363Y224802D01*
X784538Y224975D01*
X784709Y225152D01*
X784875Y225333D01*
X785037Y225518D01*
X785195Y225707D01*
X785347Y225900D01*
X785495Y226097D01*
X785639Y226297D01*
X785777Y226500D01*
X785910Y226707D01*
X786038Y226917D01*
X786161Y227130D01*
X786279Y227346D01*
X786392Y227565D01*
X786499Y227787D01*
X786600Y228011D01*
X786697Y228237D01*
X786787Y228466D01*
X786872Y228697D01*
X786952Y228930D01*
X787026Y229164D01*
X787094Y229401D01*
X787156Y229639D01*
X787212Y229878D01*
X787263Y230119D01*
X787308Y230361D01*
X787346Y230604D01*
X787379Y230848D01*
X787406Y231092D01*
X787427Y231338D01*
X787442Y231583D01*
X787451Y231829D01*
X787454Y232075D01*
X787454Y242178D01*
X787453Y242178D02*
X787448Y242569D01*
X787434Y242959D01*
X787411Y243349D01*
X787378Y243738D01*
X787335Y244126D01*
X787283Y244514D01*
X787222Y244899D01*
X787152Y245284D01*
X787072Y245666D01*
X786983Y246046D01*
X786885Y246424D01*
X786778Y246800D01*
X786662Y247173D01*
X786537Y247543D01*
X786403Y247910D01*
X786260Y248273D01*
X786108Y248633D01*
X785948Y248990D01*
X785779Y249342D01*
X785602Y249690D01*
X785416Y250033D01*
X785222Y250372D01*
X785020Y250707D01*
X784810Y251036D01*
X784592Y251360D01*
X784366Y251679D01*
X784133Y251992D01*
X783892Y252300D01*
X783643Y252601D01*
X783388Y252897D01*
X783125Y253186D01*
X782856Y253469D01*
X782580Y253745D01*
X782297Y254014D01*
X782008Y254277D01*
X781712Y254532D01*
X781411Y254781D01*
X781103Y255022D01*
X780790Y255255D01*
X780471Y255481D01*
X780147Y255699D01*
X779818Y255909D01*
X779483Y256111D01*
X779144Y256305D01*
X778801Y256491D01*
X778453Y256668D01*
X778101Y256837D01*
X777744Y256997D01*
X777384Y257149D01*
X777021Y257292D01*
X776654Y257426D01*
X776284Y257551D01*
X775911Y257667D01*
X775535Y257774D01*
X775157Y257872D01*
X774777Y257961D01*
X774395Y258041D01*
X774010Y258111D01*
X773625Y258172D01*
X773237Y258224D01*
X772849Y258267D01*
X772460Y258300D01*
X772070Y258323D01*
X771680Y258337D01*
X771289Y258342D01*
M02*
